<?xml version="1.0" standalone="no"?>
<!DOCTYPE svg PUBLIC "-//W3C//DTD SVG 20010904//EN"
 "http://www.w3.org/TR/2001/REC-SVG-20010904/DTD/svg10.dtd">
<svg version="1.0" xmlns="http://www.w3.org/2000/svg"
 width="512.000000pt" height="512.000000pt" viewBox="0 0 512.000000 512.000000"
 preserveAspectRatio="xMidYMid meet">
<metadata>
Created by potrace 1.14, written by Peter Selinger 2001-2017
</metadata>
<g transform="translate(0.000000,512.000000) scale(0.100000,-0.100000)"
fill="#000000" stroke="none">
<path d="M1309 5011 l-23 -19 -1 -268 0 -269 -275 -5 c-151 -3 -276 -7 -278
-8 -26 -18 -27 -117 -25 -2163 0 -1157 2 -2113 2 -2125 1 -11 10 -30 21 -42
l21 -22 1514 0 c832 0 1521 3 1530 6 36 14 41 51 40 317 l-1 257 268 0 c255 0
269 1 288 20 11 11 20 28 21 37 0 10 2 783 3 1718 1 1311 -1 1706 -11 1725 -6
14 -200 213 -430 443 l-419 417 -1111 0 c-1073 0 -1112 -1 -1134 -19z"/>
</g>
</svg>
